M48
;DRILL file {kicad (after 2015-mar-04 BZR unknown)-product} date 02/06/2015 03:42:09 p.m.
;FORMAT={-:-/ absolute / inch / decimal}
FMAT,2
INCH,TZ
T1C0.028
T2C0.031
T3C0.032
T4C0.039
T5C0.050
T6C0.060
T7C0.118
%
G90
G05
M72
T1
X4.4Y-2.67
X4.4Y-2.7684
X4.45Y-1.7
X4.45Y-2.
X4.45Y-2.1
X4.45Y-2.4
X4.5Y-1.5
X4.65Y-2.7
X4.75Y-1.8
X4.75Y-2.
X4.75Y-2.2
X4.7878Y-2.7
X4.9Y-1.5
X4.9Y-1.7
X4.9Y-1.8
X4.9Y-1.9
X5.025Y-2.2
X5.025Y-2.6
X5.1Y-2.2
X5.15Y-2.15
X5.2Y-2.1
X5.25Y-2.05
X5.3066Y-2.37
X5.3066Y-2.675
X5.405Y-2.37
X5.405Y-2.675
X5.5Y-1.8
X5.55Y-1.75
X5.6Y-1.7
X5.6595Y-1.6405
X5.67Y-2.175
X5.7684Y-2.175
T2
X5.05Y-1.898
T3
X5.05Y-1.9964
T4
X4.3Y-2.4
X4.5Y-2.55
T5
X4.1Y-2.55
X4.3Y-2.
T6
X4.1Y-1.95
X4.1Y-2.15
X4.1Y-2.35
X5.7Y-2.35
X5.7Y-2.55
T7
X4.Y-1.5
X4.Y-2.8
X5.8Y-1.5
X5.8Y-2.8
T0
M30
